
<svg version="1.1" id="Layer_1" xmlns="http://www.w3.org/2000/svg" xmlns:xlink="http://www.w3.org/1999/xlink" x="0px" y="0px"
	 width="25.6px" height="25.7px" viewBox="-318 338.3 25.6 25.7" enable-background="new -318 338.3 25.6 25.7"
	 xml:space="preserve">
<rect x="-307.9" y="361.4" fill="#999999" width="6.1" height="0.7"/>
<path fill="#999999" d="M-296.5,354.4l-0.5-0.5c-0.3,0.5-0.7,0.9-1,1.3l-0.8-0.8c1.4-1.5,2.3-3.5,2.3-5.8c0-4.7-3.8-8.5-8.5-8.5
	c-2.2,0-4.3,0.9-5.8,2.3l-0.8-0.8c0.4-0.4,0.8-0.7,1.3-1l-0.5-0.5c-0.5,0.3-0.9,0.7-1.3,1l-0.7-0.7l-0.4,0.4l0.7,0.7
	c-1.7,1.8-2.8,4.3-2.8,7.1c0,5.6,4.5,10.2,10.1,10.3c0.1,0.4,0.1,1.5-0.6,2.2h1.6c0,0-0.7-1-0.5-2.2c2.6-0.1,5-1.1,6.7-2.8l0.7,0.7
	l0.4-0.4l-0.7-0.7C-297.2,355.3-296.8,354.9-296.5,354.4z M-305,358.2c-5.3,0-9.5-4.3-9.5-9.5c0-2.5,1-4.8,2.6-6.6l0.8,0.8
	c-1.4,1.5-2.3,3.5-2.3,5.8c0,4.7,3.8,8.5,8.5,8.5c2.2,0,4.3-0.9,5.8-2.3l0.8,0.8C-300.2,357.2-302.5,358.2-305,358.2z"/>
</svg>
