
<svg version="1.1" id="Layer_1" xmlns="http://www.w3.org/2000/svg" xmlns:xlink="http://www.w3.org/1999/xlink" x="0px" y="0px"
	 width="34px" height="34px" viewBox="0 0 34 34" enable-background="new 0 0 34 34" xml:space="preserve">
<path id="XMLID_7_" fill="#0C2B57" d="M17.279,1.528c8.56,0,15.5,6.939,15.5,15.5c0,8.56-6.94,15.5-15.5,15.5
	c-8.56,0-15.5-6.94-15.5-15.5C1.779,8.467,8.718,1.528,17.279,1.528"/>
<path id="XMLID_6_" fill="#FFFFFF" d="M17.979,24.228v-6.7h2.3l0.4-2.6h-2.6v-1.6c0-0.7,0.2-1.3,1.3-1.3h1.4v-2.6
	c-0.3,0-1.1-0.1-2-0.1c-2,0-3.4,1.2-3.4,3.5v1.9h-2.3v2.6h2.2v6.7L17.979,24.228z"/>
</svg>
