
<!DOCTYPE svg PUBLIC "-//W3C//DTD SVG 1.1//EN" "http://www.w3.org/Graphics/SVG/1.1/DTD/svg11.dtd">
<svg version="1.1" id="Layer_1" xmlns="http://www.w3.org/2000/svg" xmlns:xlink="http://www.w3.org/1999/xlink" x="0px" y="0px"
	 width="223.25px" height="72.29px" viewBox="0 0 223.25 72.29" enable-background="new 0 0 223.25 72.29" xml:space="preserve">
<circle opacity="0.3" fill="#333333" cx="40.03" cy="35.53" r="32.48"/>
<polygon fill="#FFFFFF" points="25.73,40.25 31.94,40.25 38.69,46.49 38.69,24.57 32.07,30.82 25.73,30.82 "/>
<g>
	<path fill="#FFFFFF" d="M91.69,37.52c-0.34,1.78-1.83,2.59-3.6,2.59c-2.98,0-4.23-1.94-4.23-5.95c0-3.87,1.57-5.95,4.39-5.95
		c1.79,0,3.3,0.82,3.49,2.56h-1.25c-0.32-1.04-1.15-1.38-2.24-1.38c-1.92,0-2.98,1.47-2.98,4.77c0,3.57,1.04,4.77,2.82,4.77
		c1.09,0,1.97-0.32,2.37-1.41H91.69z"/>
	<path fill="#FFFFFF" d="M92.86,35.83c0-2.21,1.01-4.29,3.58-4.29c2.45,0,3.59,1.62,3.59,4.29c0,2.21-1.07,4.29-3.59,4.29
		C93.99,40.11,92.86,38.48,92.86,35.83z M98.65,35.83c0-2.21-0.74-3.11-2.21-3.11c-1.46,0-2.21,1.04-2.21,3.11
		c0,2.24,0.75,3.11,2.21,3.11C97.92,38.93,98.65,37.91,98.65,35.83z"/>
	<path fill="#FFFFFF" d="M101.88,31.73h1.25v1.17h0.06c0.5-0.94,1.36-1.36,2.45-1.36c1.58,0,2.71,0.83,2.71,2.86v5.52h-1.31v-5.38
		c0-1.33-0.54-1.83-1.65-1.83c-1.15,0-2.19,0.83-2.19,2.4v4.8h-1.31V31.73z"/>
	<path fill="#FFFFFF" d="M111.13,32.78h-1.54v-1.06h1.55l0.03-2.32h1.26v2.32h2.1v1.06h-2.1v4.4c0,1.42,0.51,1.63,1.58,1.63h0.67
		v1.02c-0.34,0.1-0.82,0.14-1.15,0.14c-1.63,0-2.42-0.67-2.42-2.61V32.78z"/>
	<path fill="#FFFFFF" d="M116.43,28.4h1.31v1.41h-1.31V28.4z M116.43,31.73h1.31v8.2h-1.31V31.73z"/>
	<path fill="#FFFFFF" d="M120.17,31.73h1.25v1.17h0.06c0.5-0.94,1.36-1.36,2.45-1.36c1.58,0,2.71,0.83,2.71,2.86v5.52h-1.31v-5.38
		c0-1.33-0.54-1.83-1.65-1.83c-1.15,0-2.19,0.83-2.19,2.4v4.8h-1.31V31.73z"/>
	<path fill="#FFFFFF" d="M128.94,31.73h1.31v5.38c0,1.33,0.54,1.83,1.65,1.83c1.15,0,2.19-0.83,2.19-2.4v-4.8h1.31v8.2h-1.25v-1.17
		h-0.06c-0.5,0.94-1.36,1.36-2.45,1.36c-1.58,0-2.71-0.83-2.71-2.86V31.73z"/>
	<path fill="#FFFFFF" d="M138.6,36.11c0,1.97,0.94,2.82,2.21,2.82c0.78,0,1.63-0.27,1.95-0.99H144c-0.32,1.34-1.62,2.18-3.23,2.18
		c-2.48,0-3.5-1.78-3.5-4.23c0-2.26,1.06-4.35,3.62-4.35c2.03,0,3.27,1.33,3.27,3.87c0,0.24,0,0.38-0.02,0.67h-5.52V36.11z
		 M142.84,35.03v-0.02c-0.06-1.54-0.64-2.32-2.03-2.32c-1.41,0-2.06,1.07-2.16,2.34H142.84z"/>
	<path fill="#FFFFFF" d="M149.64,31.73h1.42l0.64,4.51c0.1,0.66,0.24,1.71,0.3,2.37h0.06c0.22-0.72,0.46-1.5,0.74-2.31l1.09-3.3
		h1.34l0.91,3.3c0.22,0.83,0.43,1.62,0.58,2.31h0.08l0.46-2.35l0.91-4.53h1.39l-2.05,8.2H156l-0.72-2.42
		c-0.22-0.75-0.62-2.37-0.74-2.93h-0.06c-0.16,0.62-0.67,2.16-0.93,2.9l-0.85,2.45h-1.54L149.64,31.73z"/>
	<path fill="#FFFFFF" d="M161.18,28.4h1.31v1.41h-1.31V28.4z M161.18,31.73h1.31v8.2h-1.31V31.73z"/>
	<path fill="#FFFFFF" d="M165.5,32.78h-1.54v-1.06h1.55l0.03-2.32h1.26v2.32h2.1v1.06h-2.1v4.4c0,1.42,0.51,1.63,1.58,1.63h0.67
		v1.02c-0.34,0.1-0.82,0.14-1.15,0.14c-1.63,0-2.42-0.67-2.42-2.61V32.78z"/>
	<path fill="#FFFFFF" d="M170.79,28.4h1.31v4.35h0.08c0.48-0.78,1.28-1.22,2.38-1.22c1.57,0,2.69,0.83,2.69,2.86v5.52h-1.31v-5.38
		c0-1.33-0.54-1.83-1.65-1.83c-1.15,0-2.19,0.83-2.19,2.4v4.8h-1.31V28.4z"/>
	<path fill="#FFFFFF" d="M188.46,38.87h-0.08c-0.62,0.98-1.65,1.25-2.62,1.25c-1.42,0-2.48-0.85-2.48-2.35
		c0-1.55,0.99-2.61,3.33-2.61h1.81v-0.91c0-1.12-0.58-1.58-1.78-1.58c-0.82,0-1.46,0.3-1.67,0.86h-1.23
		c0.16-1.31,1.46-1.98,2.93-1.98c1.92,0,3.04,0.83,3.04,2.66v5.73h-1.25V38.87z M188.41,36.21h-1.68c-1.3,0-2.14,0.38-2.14,1.49
		c0,0.87,0.54,1.3,1.5,1.3c1.33,0,2.32-0.9,2.32-2.27V36.21z"/>
	<path fill="#FFFFFF" d="M192.01,31.73h1.31v5.38c0,1.33,0.54,1.83,1.65,1.83c1.15,0,2.19-0.83,2.19-2.4v-4.8h1.31v8.2h-1.25v-1.17
		h-0.06c-0.5,0.94-1.36,1.36-2.45,1.36c-1.58,0-2.71-0.83-2.71-2.86V31.73z"/>
	<path fill="#FFFFFF" d="M206.17,38.67h-0.06c-0.38,0.83-1.25,1.44-2.48,1.44c-2.43,0-3.3-2-3.3-4.27c0-2.37,1.09-4.31,3.49-4.31
		c1.14,0,1.89,0.51,2.24,1.22h0.06V28.4h1.31v11.52h-1.26V38.67z M206.12,35.27c0-1.76-0.96-2.55-2.11-2.55
		c-1.89,0-2.3,1.67-2.3,3.07c0,2.27,0.78,3.12,2.19,3.12c1.22,0,2.22-0.96,2.22-2.82V35.27z"/>
	<path fill="#FFFFFF" d="M209.86,28.4h1.31v1.41h-1.31V28.4z M209.86,31.73h1.31v8.2h-1.31V31.73z"/>
	<path fill="#FFFFFF" d="M213.03,35.83c0-2.21,1.01-4.29,3.58-4.29c2.45,0,3.59,1.62,3.59,4.29c0,2.21-1.07,4.29-3.59,4.29
		C214.17,40.11,213.03,38.48,213.03,35.83z M218.82,35.83c0-2.21-0.74-3.11-2.21-3.11c-1.46,0-2.21,1.04-2.21,3.11
		c0,2.24,0.75,3.11,2.21,3.11C218.09,38.93,218.82,37.91,218.82,35.83z"/>
</g>
</svg>
